# xmcd CD database file
#
# Track frame offsets:
#	245
#	53084
#	93566
#	167026
#	218911
#	241873
#
# Disc length: 4301 seconds
#
# Revision: 0
# Processed by: cddbd v1.5.2PL0 Copyright (c) Steve Scherf et al.
# Submitted via: CDex 1.70beta3
#
DISCID=4b10ca06
DTITLE=Brian Melvin's Nightfood featuring Jaco Pastorius - Jazz in Toulouse - Disc1
DYEAR=1985
DGENRE=Jazz
TTITLE0=Mister PC
TTITLE1=Continuum
TTITLE2=Poly wanna Rhythm
TTITLE3=Dolphin Dance
TTITLE4=Fannie Mae
TTITLE5=Impressions
EXTD=YEAR: 1985
EXTT0=
EXTT1=
EXTT2=
EXTT3=
EXTT4=
EXTT5=
PLAYORDER=
